<?xml version="1.0" encoding="UTF-8"?>
<svg xmlns="http://www.w3.org/2000/svg" viewBox="0 0 512 512">
  <defs>
    <linearGradient id="g1" x1="0" x2="1" y1="0" y2="1">
      <stop offset="0%" stop-color="#00b4ff"/>
      <stop offset="50%" stop-color="#1f8bff"/>
      <stop offset="100%" stop-color="#0066ff"/>
    </linearGradient>
    <linearGradient id="g2" x1="0" x2="1" y1="0" y2="1">
      <stop offset="0%" stop-color="#ff7a66"/>
      <stop offset="100%" stop-color="#ffb84d"/>
    </linearGradient>
  </defs>
  <rect width="100%" height="100%" fill="none"/>
  <!-- outer ring -->
  <path d="M256 64c105.9 0 192 86.1 192 192s-86.1 192-192 192S64 361.9 64 256 150.1 64 256 64z" fill="url(#g1)"/>
  <!-- inner cutout to make ring -->
  <path d="M256 128c70.7 0 128 57.3 128 128s-57.3 128-128 128-128-57.3-128-128 57.3-128 128-128z" fill="#ffffff"/>
  <!-- ribbon tail -->
  <path d="M320 300c40 0 70-40 106-40 0 60-48 120-120 120-52 0-72-28-40-80 20-34 48-0 54-0z" fill="url(#g2)" opacity=".95"/>
  <!-- small inner stroke to emulate 3D -->
  <circle cx="256" cy="256" r="140" fill="none" stroke="#000" stroke-opacity="0.03" stroke-width="8"/>
</svg>